<svg xmlns="http://www.w3.org/2000/svg" width="512.001" height="512.001" shape-rendering="geometricPrecision" text-rendering="geometricPrecision" image-rendering="optimizeQuality" fill-rule="evenodd" clip-rule="evenodd" viewBox="0 0 13546.66 13546.66"><path d="M6773.39 1575.6c2870.59 0 5197.67 2327.2 5197.67 5197.67 0 2870.59-2327.08 5197.79-5197.67 5197.79s-5197.67-2327.2-5197.67-5197.79c0-2870.47 2327.08-5197.67 5197.67-5197.67zm0-1575.6c1870.01 0 3563.7 758.25 4789.36 1983.91 1225.66 1225.66 1983.91 2919.22 1983.91 4789.48 0 1870.26-758.25 3563.83-1983.91 4789.37-1225.66 1225.66-2919.35 1983.91-4789.36 1983.91-1870.26 0-3563.82-758.25-4789.49-1983.91C758.24 10337.09-.01 8643.41-.01 6773.39c0-1870.01 758.25-3563.82 1983.91-4789.48C3209.57 758.37 4903.13 0 6773.39 0zm4319.98 2453.29C9987.89 1347.81 8460.43 663.93 6773.39 663.93c-1687.04 0-3214.62 684-4320.1 1789.36C1347.8 3558.77 663.92 5086.35 663.92 6773.39c0 1687.04 683.88 3214.5 1789.37 4319.98 1105.48 1105.49 2632.94 1789.37 4320.1 1789.37 1687.04 0 3214.5-683.88 4319.98-1789.37 1105.48-1105.36 1789.36-2632.82 1789.36-4319.98 0-1687.16-683.88-3214.62-1789.36-4320.1zM5708.54 5736.62c-94.32 0-178.3 24.13-251.93 71.91-74.12 48.14-137.29 117.59-188.64 207.84-51.71 91.12-91.12 201.45-118.33 330.98-27.09 129.54-40.63 276.56-40.63 441.31 0 224.6 23.64 412.37 71.05 563.58 47.65 151.7 119.19 265.35 214.25 341.32 95.05 75.85 215.85 114.27 360.53 114.27 131.13 0 257.47-20.56 379.74-63.04 121.53-42.24 243.8-92.72 367.67-152.69v757.02c-129.41 65.51-266.21 113.4-409.17 143.82-142.46 30.41-294.28 45.56-454.97 45.56-322.12 0-588.33-71.17-800.24-212.65-211.66-141.36-369.27-343.66-473.2-605.94-103.92-262.15-155.15-573.92-155.15-936.17 0-262.89 33-502.75 98.39-719.34 65.63-217.33 160.32-404.86 286.16-561.98 125.96-156.99 280.12-278.65 462.11-364.6 181.62-85.82 388.49-129.41 621.08-129.41 159.95 0 319.78 19.33 481.21 57.5 162.28 38.42 320.63 99 477.38 183.84l-251.07 697.92c-107.98-60.83-216.59-111.32-326.05-151.09-110.33-40.14-227.18-59.96-350.19-59.96zm2153.83 2707.31l-40.63-2.34c-94.44-5.78-187.28-14.9-279.02-27.09-91.61-12.19-179.4-25.73-263.13-40.75-84.1-15.27-165.62-33.25-244.79-53.81v-693.61c101.95 9.11 212.53 16.5 330.86 22.41 118.33 6.28 238.75 10.71 360.16 13.67 121.53 2.83 234.44 4.43 339.48 4.43 7.01-.24 14.65.13 21.67.13 75.85 0 151.7-7.76 225.95-22.66 55.16-9.97 106.51-35.22 148-73.02 31.77-33.49 49.62-78.19 49.62-124.61 0-3.32 0-6.65-.12-9.85v-52.7c.12-3.57.12-7.26.12-10.84 0-54.54-25.98-105.64-70.06-137.66-46.17-32.13-101.21-49.37-157.49-49.37h-245.03c-348.09 0-612.21-76.59-791.99-229.65-179.65-153.17-269.17-409.66-268.67-769.45v-148.5c0-329.87 98.87-576.63 296.87-740.27 147.14-122.27 343.17-198.61 588.2-229.4v-353.14h486.01v343.54c61.19 3.08 122.27 8.13 177.8 14.28 122.4 13.3 241.59 30.05 350.81 49.13 109.34 19.09 208.21 40.88 294.9 60.83v693.48c-137.79-11.7-293.18-21.3-465.81-29.43-172.63-7.75-329.38-11.45-470.49-10.83h-13.55c-70.8 0-141.35 6.03-211.05 17.97-57.25 7.39-110.44 32.51-152.93 71.67-35.09 39.28-54.54 90.01-54.54 142.59 0 4.92.12 9.97.74 14.77v45.31c-.37 4.81-.74 9.73-.74 14.53 0 60.09 25.98 116.86 71.29 156.14 57.26 38.54 125.1 59.35 194.18 59.35 8.87 0 17.73-.62 26.6-1.11h296.75c12.19-.25 24.75-.62 36.94-.62 169.67 0 337.13 41.13 487.35 119.69 134.96 75.23 244.55 189 314.85 326.42 69.45 138.65 105.78 291.95 105.78 447.22v166.72c0 285.05-49.63 502.5-148.63 652.85-98.62 149.48-249.46 257.84-422.96 303.4-136.55 37.43-277.29 61.44-418.52 70.67v386.27h-484.78v-386.76z" fill="#882c51"/></svg>
