<svg xmlns="http://www.w3.org/2000/svg" shape-rendering="geometricPrecision" text-rendering="geometricPrecision" image-rendering="optimizeQuality" fill-rule="evenodd" clip-rule="evenodd" viewBox="0 0 512 512"><path d="M256 59.55c108.5 0 196.45 87.96 196.45 196.45S364.5 452.45 256 452.45c-108.49 0-196.45-87.96-196.45-196.45S147.51 59.55 256 59.55zM256 0c70.68 0 134.69 28.66 181.02 74.98C483.34 121.31 512 185.31 512 256c0 70.69-28.66 134.7-74.98 181.02C390.7 483.34 326.69 512 256 512c-70.69 0-134.69-28.66-181.02-74.98C28.66 390.69 0 326.68 0 256c0-70.69 28.66-134.69 74.98-181.02C121.31 28.66 185.31 0 256 0zm163.28 92.72C377.49 50.94 319.76 25.09 256 25.09c-63.77 0-121.5 25.85-163.28 67.63C50.94 134.5 25.09 192.23 25.09 256c0 63.76 25.85 121.49 67.63 163.28 41.78 41.78 99.51 67.63 163.28 67.63 63.77 0 121.5-25.85 163.28-67.63 41.78-41.78 67.63-99.51 67.63-163.28 0-63.77-25.85-121.5-67.63-163.28zm-170.5 149.43h37.32v29.46h-33c-.42 6.93-1.68 13.19-3.82 18.77-1.72 4.24-4.57 8.65-8.6 13.23 4.57-1.01 8.52-1.52 11.79-1.52 4.2 0 9.66.8 16.37 2.39 9.2 2.1 16.54 3.15 22.04 3.15 4.49 0 8.4-.38 11.72-1.13 3.35-.75 7.72-2.35 13.09-4.78l16.75 36.77c-8.1 4.03-15.24 6.84-21.41 8.39-6.13 1.56-12.72 2.31-19.77 2.31-7.73 0-16.5-1.34-26.44-4.03-13.02-3.57-21.08-5.62-24.23-6.21-3.1-.55-6.46-.84-10.07-.84-10.58 0-22.25 3.69-35.01 11.08l-15.95-35.01c17.29-12.34 25.94-24.68 25.94-37.02 0-.67-.09-2.52-.25-5.55h-25.69v-29.46h18.39c-3.11-10.79-4.92-17.09-5.3-18.81-.5-2.6-.75-5.83-.75-9.69 0-10.25 2.73-19.44 8.19-27.58 5.41-8.15 12.59-14.07 21.49-17.72 8.9-3.69 20.86-5.54 35.93-5.54 14.1 0 25.27 1.59 33.5 4.75 8.23 3.14 15.19 8.39 20.86 15.69 5.71 7.35 9.61 16.21 11.76 26.62l-47.11 7.34c-2.35-8.73-5.07-14.52-8.14-17.38-3.06-2.85-6.55-4.28-10.45-4.28-4.74 0-8.57 1.56-11.5 4.66-2.94 3.11-4.41 7.52-4.41 13.23 0 3.06.29 5.96.88 8.77.54 2.85 2.52 9.48 5.88 19.94z" fill="#882c51"/></svg>
