<svg xmlns="http://www.w3.org/2000/svg" shape-rendering="geometricPrecision" text-rendering="geometricPrecision" image-rendering="optimizeQuality" fill-rule="evenodd" clip-rule="evenodd" viewBox="0 0 512 512"><path d="M256 59.55c108.5 0 196.45 87.96 196.45 196.45S364.5 452.45 256 452.45c-108.49 0-196.45-87.96-196.45-196.45S147.51 59.55 256 59.55zM256 0c70.68 0 134.69 28.66 181.02 74.98C483.34 121.31 512 185.31 512 256c0 70.69-28.66 134.7-74.98 181.02C390.7 483.34 326.69 512 256 512c-70.69 0-134.69-28.66-181.02-74.98C28.66 390.69 0 326.68 0 256c0-70.69 28.66-134.69 74.98-181.02C121.31 28.66 185.31 0 256 0zm163.28 92.72C377.49 50.94 319.76 25.09 256 25.09c-63.77 0-121.5 25.85-163.28 67.63C50.94 134.5 25.09 192.23 25.09 256c0 63.76 25.85 121.49 67.63 163.28 41.78 41.78 99.51 67.63 163.28 67.63 63.77 0 121.5-25.85 163.28-67.63 41.78-41.78 67.63-99.51 67.63-163.28 0-63.77-25.85-121.5-67.63-163.28zM286.15 218.77c-.59-6.7-3.28-11.86-8.06-15.61-3.31-2.59-7.63-4.29-12.92-5.08v38.85l9.64 2.18c9.17 2.01 17.31 4.65 24.39 7.98 7.04 3.33 12.97 7.33 17.79 11.94 4.82 4.56 8.48 9.89 10.95 15.87 2.48 6.01 3.76 12.75 3.84 20.16-.08 11.77-3.06 21.84-8.91 30.28-5.88 8.41-14.33 14.89-25.33 19.37-9.18 3.75-19.98 5.92-32.37 6.52v21.07h-14.93v-21.08c-12.43-.64-23.48-2.9-33.13-6.81-11.6-4.65-20.6-11.73-27-21.24-6.44-9.51-9.72-21.54-9.9-36.08h43.08c.34 5.97 1.96 11 4.77 14.97 2.86 4.01 6.79 7.04 11.77 9.08 3.17 1.32 6.64 2.21 10.41 2.69v-41l-13.35-3.1c-16.11-3.7-28.78-9.68-38.08-17.95-9.26-8.27-13.86-19.45-13.82-33.57-.04-11.51 3.07-21.62 9.3-30.28 6.23-8.65 14.84-15.39 25.89-20.25 9.01-3.94 19.02-6.28 30.06-7.01V139.7h14.93v20.94c11.39.69 21.49 3.06 30.28 7.08 10.66 4.9 18.89 11.73 24.78 20.51 5.89 8.79 8.87 18.94 9 30.54h-43.08zm-35.91-20.69c-2.6.38-4.93.96-6.99 1.75-3.88 1.54-6.78 3.63-8.7 6.23-1.96 2.64-2.94 5.67-3.03 9.04-.09 2.82.47 5.25 1.71 7.38 1.23 2.13 3.07 3.97 5.45 5.58 2.4 1.63 5.3 3.03 8.66 4.23.94.33 1.91.65 2.9.95v-35.16zm14.93 115.64c2.77-.41 5.3-1.05 7.59-1.94 4.26-1.62 7.55-3.88 9.85-6.78 2.31-2.94 3.5-6.27 3.54-10.02-.04-3.5-1.15-6.52-3.28-9.04-2.13-2.52-5.38-4.69-9.77-6.53-2.31-.98-4.96-1.92-7.93-2.82v37.13z" fill="#882c51"/></svg>
