<svg xmlns="http://www.w3.org/2000/svg" width="512.001" height="512.001" shape-rendering="geometricPrecision" text-rendering="geometricPrecision" image-rendering="optimizeQuality" fill-rule="evenodd" clip-rule="evenodd" viewBox="0 0 13546.66 13546.66"><path d="M6773.39 1575.61c2870.59 0 5197.67 2327.2 5197.67 5197.67 0 2870.59-2327.08 5197.79-5197.67 5197.79s-5197.67-2327.2-5197.67-5197.79c0-2870.47 2327.08-5197.67 5197.67-5197.67zm0-1575.61c1870.01 0 3563.7 758.25 4789.36 1983.91 1225.66 1225.67 1983.91 2919.23 1983.91 4789.49 0 1870.01-758.25 3563.7-1983.91 4789.36-1225.66 1225.66-2919.35 1983.91-4789.36 1983.91-1870.26 0-3563.82-758.25-4789.49-1983.91C758.24 10337.1-.01 8643.41-.01 6773.4c0-1870.26 758.25-3563.82 1983.91-4789.49C3209.57 758.25 4903.13 0 6773.39 0zm4319.98 2453.3C9987.89 1347.81 8460.43 663.93 6773.39 663.93c-1687.16 0-3214.62 683.88-4320.1 1789.37C1347.8 3558.78 663.92 5086.24 663.92 6773.4c0 1687.04 683.88 3214.5 1789.37 4319.98 1105.48 1105.48 2632.94 1789.36 4320.1 1789.36 1687.04 0 3214.5-683.88 4319.98-1789.36 1105.48-1105.48 1789.36-2632.94 1789.36-4319.98 0-1687.16-683.88-3214.62-1789.36-4320.1zM6048.88 8438.77L5901 7786.16h-927.56l-149.48 652.61h-951.57l977.05-3425.55h1154.74l988.14 3425.55h-943.44zm2019.86-41.87l-40.88-2.46c-94.44-5.66-187.53-14.65-279.26-26.84-91.61-12.32-179.28-25.86-263.13-41.01a3322.251 3322.251 0 01-244.67-53.68v-693.73c101.95 8.99 212.4 16.25 330.73 22.53 118.46 6.04 238.88 10.47 360.54 13.42 121.53 2.84 234.44 4.44 339.47 4.44 7.15-.13 14.53.24 21.92.24 75.73 0 151.33-7.75 225.7-22.65 55.04-9.98 106.39-35.34 148.01-73.02 31.89-33.62 49.74-78.31 49.74-124.73 0-3.21-.37-6.53-.37-9.98v-52.58c.25-3.69.37-7.14.37-10.95 0-54.43-26.22-105.65-70.18-137.54-46.3-32.26-101.22-49.5-157.37-49.5h-245.4c-348.09 0-611.97-76.34-791.86-229.64-179.65-153.18-269.29-409.67-269.05-769.58v-148.5c0-329.87 99.25-576.88 297.37-740.52 146.77-122.02 343.04-198.61 588.32-229.4v-353.26h485.88v343.54c61.2 3.08 122.15 8.12 178.05 14.16 122.28 13.54 241.34 30.29 350.56 49.37 109.34 19.09 208.1 40.88 295.15 60.83v693.61c-137.91-11.58-293.3-21.43-465.93-29.31-172.76-7.88-329.63-11.45-470.61-11.08h-13.43c-70.92 0-141.6 6.28-211.17 18.1-57.25 7.63-110.57 32.63-152.93 71.91-35.46 39.15-54.67 89.76-54.67 142.46 0 4.81.12 10.1.74 14.78v45.56c-.12 4.68-.74 9.48-.74 14.28 0 59.84 26.1 116.73 71.42 156.13 57.25 38.67 125.1 59.23 194.05 59.23 9.24 0 17.74-.25 26.48-.99h296.99c12.07-.24 24.88-.49 36.82-.49 169.68 0 337.26 41.13 487.36 119.69 134.83 75.23 244.79 189.01 315.09 326.42 69.45 138.65 105.9 292.19 105.9 447.22 0 6.16-.12 12.44-.12 18.22v148.75c0 285.05-49.63 502.62-148.63 652.72-98.5 149.73-249.59 258.09-422.96 303.52-136.67 37.68-277.41 61.69-418.65 70.8v386.39l-484.65-.12V8396.9zM5741.91 7057.84l-143.2-664.43c-15.15-73.75-34.48-158.47-56.03-255.13-21.55-96.66-42.36-193.56-62.3-291.08-19.21-97.52-34.36-182.24-45.56-254.27-11.21 70.31-25.49 151.82-43.22 245.4-18.35 94.32-36.82 189.63-57.51 285.42-20.07 96.91-40.01 185.56-58.36 264.74l-145.54 669.35h611.72z" fill="#882c51"/></svg>
