<svg xmlns="http://www.w3.org/2000/svg" shape-rendering="geometricPrecision" text-rendering="geometricPrecision" image-rendering="optimizeQuality" fill-rule="evenodd" clip-rule="evenodd" viewBox="0 0 512 512"><path d="M256.002 59.551c108.495 0 196.447 87.957 196.447 196.447 0 108.494-87.952 196.451-196.447 196.451-108.494 0-196.447-87.957-196.447-196.451 0-108.49 87.953-196.447 196.447-196.447zm0-59.551c70.678 0 134.691 28.658 181.015 74.982C483.341 121.307 512 185.315 512 256.002c0 70.687-28.659 134.696-74.983 181.015C390.698 483.341 326.689 512 256.002 512c-70.687 0-134.695-28.659-181.02-74.983C28.658 390.693 0 326.68 0 256.002c0-70.687 28.658-134.695 74.982-181.02C121.307 28.658 185.315 0 256.002 0zm163.275 92.723c-41.782-41.782-99.513-67.63-163.275-67.63-63.766 0-121.497 25.848-163.279 67.63s-67.63 99.513-67.63 163.279c0 63.762 25.848 121.493 67.63 163.275 41.782 41.782 99.513 67.629 163.279 67.629 63.767 0 121.498-25.847 163.275-67.629 41.782-41.777 67.629-99.508 67.629-163.275 0-63.766-25.847-121.497-67.629-163.279zm-213.978 66.931H325.8a3.27 3.27 0 013.258 3.258v29.863a3.274 3.274 0 01-3.258 3.258h-85.225v35.709h64.041c1.792 0 3.253 1.489 3.253 3.257v29.864c0 1.773-1.485 3.258-3.253 3.258h-64.041v28.341h19.406c1.755 0 3.188 1.453 3.188 3.188v22.93c0 1.736-1.452 3.188-3.188 3.188h-19.406v23.325c0 1.773-1.485 3.253-3.258 3.253h-28.765c-1.773 0-3.253-1.461-3.253-3.253v-23.325h-19.165a3.207 3.207 0 01-3.187-3.188v-22.93a3.199 3.199 0 013.187-3.188h19.165V159.654z" fill="#882c51"/></svg>
