<svg xmlns="http://www.w3.org/2000/svg" shape-rendering="geometricPrecision" text-rendering="geometricPrecision" image-rendering="optimizeQuality" fill-rule="evenodd" clip-rule="evenodd" viewBox="0 0 512 512"><path d="M256 59.55c108.5 0 196.45 87.96 196.45 196.45S364.5 452.45 256 452.45c-108.49 0-196.45-87.96-196.45-196.45S147.51 59.55 256 59.55zM256 0c70.68 0 134.69 28.66 181.02 74.98C483.34 121.31 512 185.31 512 256c0 70.69-28.66 134.7-74.98 181.02C390.7 483.34 326.69 512 256 512c-70.69 0-134.69-28.66-181.02-74.98C28.66 390.69 0 326.68 0 256c0-70.69 28.66-134.69 74.98-181.02C121.31 28.66 185.31 0 256 0zm163.28 92.72C377.49 50.94 319.76 25.09 256 25.09c-63.77 0-121.5 25.85-163.28 67.63C50.94 134.5 25.09 192.23 25.09 256c0 63.76 25.85 121.49 67.63 163.28 41.78 41.78 99.51 67.63 163.28 67.63 63.77 0 121.5-25.85 163.28-67.63 41.78-41.78 67.63-99.51 67.63-163.28 0-63.77-25.85-121.5-67.63-163.28zm-245.15 73.79h54.58l27.54 60.66 26.88-60.66h54.74l-41.73 77.24h35.61v27h-50.42v14.75h50.42v27.24h-50.42v32.75h-49.68v-32.75H180.5V285.5h51.15v-14.75H180.5v-27h36.59l-42.96-77.24z" fill="#882c51"/></svg>
