<svg xmlns="http://www.w3.org/2000/svg" width="512.001" height="512.001" shape-rendering="geometricPrecision" text-rendering="geometricPrecision" image-rendering="optimizeQuality" fill-rule="evenodd" clip-rule="evenodd" viewBox="0 0 13546.8 13546.8"><path d="M6773.46 1575.63c2870.62 0 5197.72 2327.22 5197.72 5197.72 0 2870.62-2327.1 5197.84-5197.72 5197.84-2870.62 0-5197.72-2327.22-5197.72-5197.84 0-2870.5 2327.1-5197.72 5197.72-5197.72zm0-1575.63c1870.04 0 3563.73 758.26 4789.42 1983.93 1225.67 1225.68 1983.93 2919.26 1983.93 4789.54 0 1870.28-758.26 3563.85-1983.93 4789.41-1225.55 1225.67-2919.14 1983.93-4789.42 1983.93-1870.28 0-3563.85-758.26-4789.53-1983.93C758.26 10337.21 0 8643.5 0 6773.47c0-1870.28 758.26-3563.85 1983.93-4789.54C3209.6 758.26 4903.18 0 6773.46 0zm4320.02 2453.32C9987.99 1347.82 8460.51 663.93 6773.46 663.93c-1687.18 0-3214.65 683.89-4320.14 1789.39C1347.83 3558.81 663.94 5086.29 663.94 6773.46c0 1687.06 683.89 3214.53 1789.38 4320.02 1105.49 1105.49 2632.97 1789.38 4320.14 1789.38 1687.18 0 3214.65-683.89 4320.02-1789.38 1105.5-1105.37 1789.39-2632.85 1789.39-4320.02 0-1687.18-683.89-3214.65-1789.39-4320.14zM6153.85 6534.21h292.07c286.16 0 497.58-47.9 633.16-143.57 136.55-94.69 204.4-245.28 204.4-449.68 0-202.43-69.82-346.99-208.34-432.69-139.63-85.82-354.99-128.67-647.2-128.67h-274.09v1154.62zm0 735.73V8909.1h-905.28V4637.84h1244.26c580.21 0 1008.96 105.77 1287.12 317.07 279.14 211.41 417.79 532.43 417.79 962.04 0 251.31-68.83 474.68-207.36 671.08-137.66 195.41-333.07 348.96-586.37 459.66 642.15 960.19 1060.92 1581.28 1255.35 1861.41H7654.34L6635.41 7269.94h-481.57z" fill="#882c51"/></svg>
